# xmcd
#
# Track frame offsets:
#	150
#	31861
#	55881
#	65476
#	89753
#	103533
#	128503
#	151953
#	170608
#	186103
#	203101
#	217691
#	239711
#	252723
#	269601
#	290398
#
# Disc length: 4163 seconds
#
# Revision: 0
# Processed by: cddbd v1.5.2PL0 Copyright (c) Steve Scherf et al.
# Submitted via: audiograbber 1.83.01
#
DISCID=ed104110
DTITLE=Lightnin' Hopkins - Cadillac Blues
DYEAR=2005
DGENRE=Blues
TTITLE0=Big Black Cadillac Blues
TTITLE1=Early In The Morning Blues
TTITLE2=Coffee House Blues
TTITLE3=I've Been Buked And Scorned
TTITLE4=Stool Pidgeon Blues
TTITLE5=Brand New Car
TTITLE6=Drinkin' In The Blues
TTITLE7=Shinin' Blues
TTITLE8=Ball Of Twine
TTITLE9=Fugitive Blues
TTITLE10=G String Blues
TTITLE11=Grandma Told Grandpa
TTITLE12=Rain
TTITLE13=Goin' To Dalles
TTITLE14=Late Night
TTITLE15=Shake It Baby
EXTD=
EXTT0=
EXTT1=
EXTT2=
EXTT3=
EXTT4=
EXTT5=
EXTT6=
EXTT7=
EXTT8=
EXTT9=
EXTT10=
EXTT11=
EXTT12=
EXTT13=
EXTT14=
EXTT15=
PLAYORDER=
